<svg width="51" height="53" viewBox="0 0 51 53" fill="none" xmlns="http://www.w3.org/2000/svg">
<path d="M38.0573 24.7212C38.0573 26.1778 36.8764 27.3587 35.4198 27.3587C33.9631 27.3587 32.7823 26.1778 32.7823 24.7212C32.7823 23.2645 33.9631 22.0837 35.4198 22.0837C36.8764 22.0837 38.0573 23.2645 38.0573 24.7212Z" fill="#E65728"/>
<path d="M16.783 24.7212C16.783 26.1778 15.6022 27.3587 14.1456 27.3587C12.6889 27.3587 11.5081 26.1778 11.5081 24.7212C11.5081 23.2645 12.6889 22.0837 14.1456 22.0837C15.6022 22.0837 16.783 23.2645 16.783 24.7212Z" fill="#E65728"/>
<path fill-rule="evenodd" clip-rule="evenodd" d="M34.2184 5.83201L39.1117 0.784149L41.9164 3.53684L44.8768 0.784149L50.0186 6.18566L43.4379 12.6763C46.9406 16.8826 49.0476 22.2923 49.0476 28.194C49.0476 41.5952 38.1838 52.459 24.7827 52.459C11.3815 52.459 0.517731 41.5952 0.517731 28.194C0.517731 14.7929 11.3815 3.92907 24.7827 3.92907C28.1294 3.92907 31.3179 4.60661 34.2184 5.83201ZM6.95995 24.7212C6.95995 21.9667 9.1929 19.7338 11.9474 19.7338H37.618C40.3724 19.7338 42.6054 21.9667 42.6054 24.7212C42.6054 27.4757 40.3724 29.7086 37.618 29.7086H11.9474C9.1929 29.7086 6.95995 27.4757 6.95995 24.7212Z" fill="#E65728"/>
</svg>
